<?xml version="1.0" encoding="utf-8"?>
<!-- Generator: Adobe Illustrator 24.2.1, SVG Export Plug-In . SVG Version: 6.00 Build 0)  -->
<svg version="1.1" id="Capa_1" xmlns="http://www.w3.org/2000/svg" xmlns:xlink="http://www.w3.org/1999/xlink" x="0px" y="0px"
	 viewBox="0 0 100 100" style="enable-background:new 0 0 100 100;" xml:space="preserve">
<style type="text/css">
	.st0{fill-rule:evenodd;clip-rule:evenodd;fill:#666666;}
	.st1{fill-rule:evenodd;clip-rule:evenodd;fill:#D6D6D7;}
	.st2{fill-rule:evenodd;clip-rule:evenodd;fill:url(#path3404_1_);}
	.st3{fill-rule:evenodd;clip-rule:evenodd;fill:#919292;}
	.st4{fill-rule:evenodd;clip-rule:evenodd;fill:url(#path3408_1_);}
	.st5{fill-rule:evenodd;clip-rule:evenodd;fill:url(#path3410_1_);}
	.st6{fill-rule:evenodd;clip-rule:evenodd;fill:#F1F1F1;}
	.st7{fill-rule:evenodd;clip-rule:evenodd;fill:url(#rect3414_1_);}
</style>
<g>
	<path id="rect3400" class="st0" d="M9.3,0.1h81.3c5.1,0,9.2,3.4,9.2,7.7v84.5c0,4.3-4.1,7.7-9.2,7.7H9.3C4.2,100,0,96.6,0,92.3V7.8
		C0,3.5,4.2,0.1,9.3,0.1z"/>
	<rect id="rect3402" x="77.9" y="7.5" class="st1" width="21.9" height="66.4"/>
	
		<linearGradient id="path3404_1_" gradientUnits="userSpaceOnUse" x1="349.2251" y1="-167.9018" x2="348.013" y2="-162.8512" gradientTransform="matrix(1 0 0 -1 -262.6396 -160.5091)">
		<stop  offset="0" style="stop-color:#D6D6D7"/>
		<stop  offset="1" style="stop-color:#666666"/>
	</linearGradient>
	<path id="path3404" class="st2" d="M82.1,13.3l17.6-5.7C99,2.1,95.2,0.2,89.9,0c-7.1,0.2-14,0.5-17.6,2.6L82.1,13.3z"/>
	<rect id="rect3406" x="17.6" y="75.1" class="st3" width="64.9" height="24.9"/>
	
		<linearGradient id="path3408_1_" gradientUnits="userSpaceOnUse" x1="38.5125" y1="-241.8509" x2="46.5637" y2="-248.1396" gradientTransform="matrix(-1 0 0 -1 129.201 -160.5091)">
		<stop  offset="0" style="stop-color:#D6D6D7"/>
		<stop  offset="1" style="stop-color:#939394"/>
	</linearGradient>
	<path id="path3408" class="st4" d="M78.8,69.2l20.9,2.2l0.1,20.2c0,5.2-4.2,8.2-8.5,8.4L82,99.9L71.6,76.2L78.8,69.2z"/>
	
		<linearGradient id="path3410_1_" gradientUnits="userSpaceOnUse" x1="268.5628" y1="-242.0568" x2="277.7654" y2="-248.3481" gradientTransform="matrix(1 0 0 -1 -262.6396 -160.5091)">
		<stop  offset="0" style="stop-color:#666666"/>
		<stop  offset="1" style="stop-color:#939394"/>
	</linearGradient>
	<path id="path3410" class="st5" d="M14.6,69L0.1,71.4L0,91.6c0,5.2,4.2,8.2,8.5,8.4l9.3-0.1l3.3-23.6L14.6,69z"/>
	<path id="rect3412" class="st6" d="M22.4,1.3h52.3c5.1,0,9.2,4.1,9.2,9.1v59c0,5-4.1,9.1-9.2,9.1H22.4c-5.1,0-9.2-4.1-9.2-9.1v-59
		C13.1,5.4,17.3,1.3,22.4,1.3z"/>
	
		<linearGradient id="rect3414_1_" gradientUnits="userSpaceOnUse" x1="168.6516" y1="-357.9757" x2="199.6093" y2="-357.9757" gradientTransform="matrix(1 0 0 -1 -134.5682 -318.0142)">
		<stop  offset="0" style="stop-color:#D8D8D8"/>
		<stop  offset="1" style="stop-color:#B2B2B2"/>
	</linearGradient>
	<path id="rect3414" class="st7" d="M22.4,1.3h50.3c5.1,0,9.2,4.1,9.2,9.1v59c0,5-4.1,9.1-9.2,9.1H22.4c-5.1,0-9.2-4.1-9.2-9.1v-59
		C13.1,5.4,17.3,1.3,22.4,1.3z"/>
</g>
</svg>
